# xmcd
#
# Track frame offsets: 
#        150
#        19482
#        35564
#        54266
#        76527
#        94156
#        112191
#        134183
#        151713
#        170756
#        187711
#        207703
#        226094
#        252196
#        267513
#        288539
#        304354
#        324105
#
# Disc length: 4580 seconds
#
# Revision: 0
# Processed by: cddbd v1.5.2PL0 Copyright (c) Steve Scherf et al.
# Submitted via: ExactAudioCopy v0.99pb5
#
DISCID=fc11e212
DTITLE=Va  - Hard and Heavy Time Life Box Set - Disc 7
DYEAR=1900
DGENRE=
TTITLE0=Sammy Hagar - There's Only One Way To Rock
TTITLE1=Judas Priest - Living After Midnight
TTITLE2=Winger - Seventeen
TTITLE3=Living Colour - Cult Of Personality
TTITLE4=David Lee Roth - Yankee Rose
TTITLE5=Scorpions - No One Like You
TTITLE6=Quiet Riot - Cum On Feel The Noize
TTITLE7=Skid Row - 18 And Life
TTITLE8=Kix - Don't Close Your Eyes
TTITLE9=Cinderella - Shake Me
TTITLE10=Bulletboys - Smooth Up In Ya
TTITLE11=Krokus - Midnite Maniac
TTITLE12=Faster Pussycat - House Of Pain
TTITLE13=Warrant - Cherry Pie
TTITLE14=Autograph - Turn Up The Radio
TTITLE15=Y and T - Summertime Girls
TTITLE16=Foreigner - Juke Box Hero
TTITLE17=Slaughter - Up All Night
EXTD=
EXTT0=
EXTT1=
EXTT2=
EXTT3=
EXTT4=
EXTT5=
EXTT6=
EXTT7=
EXTT8=
EXTT9=
EXTT10=
EXTT11=
EXTT12=
EXTT13=
EXTT14=
EXTT15=
EXTT16=
EXTT17=
PLAYORDER=
